#!OML:ASF H:\LiuWeirdWalks\Patient Classification 1\Patient 1\Session 1\male.ASF
:FULLY-SPECIFIED
:DEGREES
1140
root 2.6823 17.93 23.1641 2.38753 3.10661 -3.61883
lowerback 11.9802 0.10686 -2.25219
upperback 1.71395 -0.0382436 2.02403
thorax -4.91785 0.0382304 3.40293
lowerneck -25.63 0.405517 6.60648
upperneck 27.0613 -0.765952 -4.3506
head 13.3485 -0.260401 -2.97544
rclavicle -4.91992e-015 -7.45443e-015
rhumerus -34.3591 -27.2974 -8.55744
rradius 35.7983
rwrist -6.46617
rhand -19.6421 -3.18091
rfingers 7.12502
rthumb 6.68537 -33.0554
lclavicle -4.91992e-015 -7.45443e-015
lhumerus -30.1288 30.3815 29.3599
lradius 42.2151
lwrist 0.358968
lhand -19.0494 0.104735
lfingers 7.12502
lthumb 7.25746 29.9603
rfemur -21.4187 -10.4398 17.6903
rtibia 66.738
rfoot -4.56953 -21.092
rtoes -1.83769
lfemur -12.9302 -0.793035 -14.1244
ltibia 32.8981
lfoot -13.0691 8.93871
ltoes -14.5557
1141
root 2.69534 17.924 23.2417 2.38697 2.93905 -3.4159
lowerback 12.0074 0.0999146 -2.4148
upperback 1.6966 -0.0668409 2.06332
thorax -4.94869 0.028123 3.54195
lowerneck -25.6523 0.481911 6.66731
upperneck 27.0558 -0.639656 -4.48566
head 13.3584 -0.218854 -3.01674
rclavicle -8.64713e-015 -1.40143e-014
rhumerus -33.8861 -27.2596 -8.81042
rradius 35.6701
rwrist -6.97065
rhand -19.9813 -3.7164
rfingers 7.12502
rthumb 6.35791 -33.601
lclavicle -8.64713e-015 -1.40143e-014
lhumerus -30.3531 30.1904 29.0525
lradius 42.338
lwrist 0.601039
lhand -19.1711 0.194684
lfingers 7.12502
lthumb 7.13996 30.0542
rfemur -22.0676 -10.3798 17.4717
rtibia 66.3799
rfoot -5.15128 -21.2959
rtoes -1.95018
lfemur -12.5466 -0.757722 -14.3893
ltibia 32.8117
lfoot -13.223 9.04741
ltoes -14.7037
1142
root 2.70887 17.9177 23.3192 2.38349 2.7854 -3.22368
lowerback 12.0168 0.091922 -2.50897
upperback 1.72584 -0.0881592 2.09719
thorax -4.92125 0.0186411 3.63457
lowerneck -25.8031 0.554566 6.71589
upperneck 27.0652 -0.525435 -4.61328
head 13.4001 -0.183084 -3.05753
rclavicle -9.8709e-015 5.06901e-015
rhumerus -33.3865 -27.2414 -9.10969
rradius 35.5286
rwrist -7.70766
rhand -20.4591 -4.38355
rfingers 7.12502
rthumb 5.89662 -34.2815
lclavicle -9.8709e-015 5.06901e-015
lhumerus -30.4574 30.3934 28.7183
lradius 42.3359
lwrist 0.550627
lhand -19.2273 0.183364
lfingers 7.12502
lthumb 7.08577 30.0448
rfemur -22.6891 -10.3141 17.2617
rtibia 65.8828
rfoot -5.72996 -21.3405
rtoes -2.22423
lfemur -12.1687 -0.71364 -14.6459
ltibia 32.7357
lfoot -13.378 9.13994
ltoes -14.8717
1143
root 2.72146 17.9109 23.3958 2.3877 2.628 -3.01524
lowerback 12.047 0.0588669 -2.67895
upperback 1.73067 -0.151372 2.15892
thorax -4.92702 -0.00897991 3.80707
lowerneck -25.8634 0.677446 6.84081
upperneck 27.0276 -0.337757 -4.82468
head 13.4091 -0.120016 -3.12848
rclavicle 3.78933e-016 -2.59352e-015
rhumerus -32.741 -26.9938 -9.54531
rradius 35.3713
rwrist -8.63478
rhand -20.9861 -5.04695
rfingers 7.12502
rthumb 5.38772 -34.9585
lclavicle 3.78933e-016 -2.59352e-015
lhumerus -30.7338 30.5835 28.2761
lradius 42.394
lwrist 0.536785
lhand -19.2771 0.209377
lfingers 7.12502
lthumb 7.03764 30.0724
rfemur -23.3129 -10.2211 17.0471
rtibia 65.26
rfoot -6.2612 -21.2563
rtoes -2.66941
lfemur -11.8092 -0.641913 -14.9167
ltibia 32.6652
lfoot -13.5232 9.21646
ltoes -15.0347
1144
root 2.73379 17.9037 23.472 2.39244 2.47983 -2.78327
lowerback 12.0767 0.0346574 -2.82717
upperback 1.73982 -0.200738 2.20907
thorax -4.92886 -0.0303972 3.95283
lowerneck -25.9193 0.787063 6.9624
upperneck 26.9884 -0.165361 -5.04287
head 13.4162 -0.0649326 -3.20432
rclavicle 1.05977e-014 1.25234e-014
rhumerus -32.2065 -26.6636 -9.95309
rradius 35.2873
rwrist -9.54265
rhand -21.454 -5.5967
rfingers 7.12502
rthumb 4.93603 -35.5192
lclavicle 1.05977e-014 1.25234e-014
lhumerus -30.9534 30.7585 27.8617
lradius 42.4346
lwrist 0.521227
lhand -19.3282 0.22731
lfingers 7.12502
lthumb 6.98838 30.092
rfemur -23.9244 -10.1224 16.8088
rtibia 64.5187
rfoot -6.75686 -21.0471
rtoes -3.1259
lfemur -11.4578 -0.555848 -15.2131
ltibia 32.5997
lfoot -13.6677 9.27643
ltoes -15.1948
1145
root 2.74554 17.8963 23.5485 2.39566 2.35232 -2.5254
lowerback 12.1118 0.0174087 -2.96175
upperback 1.74235 -0.239716 2.25073
thorax -4.94134 -0.0466655 4.08043
lowerneck -25.9601 0.876032 7.06959
upperneck 26.9356 -0.0148747 -5.26375
head 13.4135 -0.0214412 -3.2822
rclavicle 1.17904e-014 1.23246e-014
rhumerus -31.8059 -26.3446 -10.2617
rradius 35.2075
rwrist -10.0875
rhand -21.6885 -5.83629
rfingers 7.12502
rthumb 4.70952 -35.7639
lclavicle 1.17904e-014 1.23246e-014
lhumerus -31.1263 30.8664 27.4825
lradius 42.4753
lwrist 0.541065
lhand -19.3778 0.278881
lfingers 7.12502
lthumb 6.94048 30.1451
rfemur -24.5159 -10.0361 16.5428
rtibia 63.6656
rfoot -7.21842 -20.7307
rtoes -3.61976
lfemur -11.1088 -0.467813 -15.5369
ltibia 32.5356
lfoot -13.8076 9.3215
ltoes -15.365
1146
root 2.75693 17.8888 23.6248 2.40726 2.23868 -2.25898
lowerback 12.1391 0.0213955 -3.03287
upperback 1.74261 -0.243029 2.27551
thorax -4.95543 -0.0465259 4.14821
lowerneck -25.9912 0.918433 7.12718
upperneck 26.8613 0.0813168 -5.45825
head 13.396 -0.00328708 -3.35021
rclavicle -8.27441e-015 -2.08724e-015
rhumerus -31.6442 -26.0913 -10.4082
rradius 35.149
rwrist -10.0889
rhand -21.5933 -5.61422
rfingers 7.12502
rthumb 4.80143 -35.5398
lclavicle -8.27441e-015 -2.08724e-015
lhumerus -31.1855 30.9298 27.1766
lradius 42.4882
lwrist 0.525913
lhand -19.4029 0.290721
lfingers 7.12502
lthumb 6.91625 30.1577
rfemur -25.0995 -9.9637 16.2704
rtibia 62.7003
rfoot -7.63775 -20.3258
rtoes -4.09228
lfemur -10.7763 -0.384669 -15.8692
ltibia 32.4764
lfoot -13.9321 9.36475
ltoes -15.548
1147
root 2.76754 17.8816 23.701 2.41948 2.14939 -2.00895
lowerback 12.1549 0.0427281 -3.02361
upperback 1.75795 -0.212847 2.2952
thorax -4.95083 -0.0320074 4.159
lowerneck -26.0744 0.911255 7.10965
upperneck 26.8142 0.119217 -5.60563
head 13.3957 -0.0114881 -3.39899
rclavicle -8.82107e-015 1.43125e-014
rhumerus -31.6722 -25.938 -10.4211
rradius 35.118
rwrist -9.73366
rhand -21.2889 -5.06029
rfingers 7.12502
rthumb 5.09544 -34.979
lclavicle -8.82107e-015 1.43125e-014
lhumerus -31.1123 30.9658 26.9651
lradius 42.4788
lwrist 0.520533
lhand -19.4077 0.280307
lfingers 7.12502
lthumb 6.91162 30.1475
rfemur -25.6595 -9.90779 16.0197
rtibia 61.6248
rfoot -8.03296 -19.8585
rtoes -4.58094
lfemur -10.45 -0.301497 -16.1786
ltibia 32.415
lfoot -14.0419 9.38836
ltoes -15.7591
1148
root 2.7779 17.8746 23.7771 2.4337 2.08041 -1.80607
lowerback 12.176 0.0667932 -2.9201
upperback 1.77554 -0.166333 2.32314
thorax -4.94871 -0.0110323 4.12214
lowerneck -26.1877 0.875832 7.048
upperneck 26.7766 0.124686 -5.72658
head 13.4028 -0.0347225 -3.43645
rclavicle 3.926e-015 -1.47101e-014
rhumerus -31.8051 -25.8359 -10.367
rradius 35.1055
rwrist -9.20197
rhand -20.8774 -4.3311
rfingers 7.12502
rthumb 5.49271 -34.2399
lclavicle 3.926e-015 -1.47101e-014
lhumerus -30.9622 31.022 26.7912
lradius 42.4236
lwrist 0.484983
lhand -19.401 0.239
lfingers 7.12502
lthumb 6.9181 30.106
rfemur -26.1938 -9.86769 15.8224
rtibia 60.4397
rfoot -8.40134 -19.3513
rtoes -5.072
lfemur -10.1333 -0.208176 -16.4319
ltibia 32.3545
lfoot -14.1413 9.38699
ltoes -15.9859
1149
root 2.78831 17.8685 23.853 2.4601 2.04439 -1.56744
lowerback 12.2035 0.08412 -2.81663
upperback 1.78412 -0.129374 2.34047
thorax -4.95858 0.00556391 4.07578
lowerneck -26.2944 0.836312 6.98927
upperneck 26.7355 0.127955 -5.86078
head 13.4068 -0.0605478 -3.47996
rclavicle -5.36719e-015 -9.93923e-015
rhumerus -31.9623 -25.9123 -10.2626
rradius 35.0656
rwrist -8.57057
rhand -20.4633 -3.57058
rfingers 7.12502
rthumb 5.89253 -33.4686
lclavicle -5.36719e-015 -9.93923e-015
lhumerus -30.768 31.0744 26.6313
lradius 42.3249
lwrist 0.471045
lhand -19.422 0.222958
lfingers 7.12502
lthumb 6.8978 30.0906
rfemur -26.7108 -9.87531 15.5827
rtibia 59.1563
rfoot -8.72394 -18.8011
rtoes -5.56565
lfemur -9.82823 -0.132972 -16.7252
ltibia 32.2845
lfoot -14.2235 9.37477
ltoes -16.2242
1150
root 2.79692 17.8636 23.9294 2.49478 1.99906 -1.35121
lowerback 12.2206 0.11921 -2.66213
upperback 1.79885 -0.0620894 2.35501
thorax -4.95895 0.0358807 3.9922
lowerneck -26.4395 0.773494 6.90277
upperneck 26.7198 0.0996255 -5.97031
head 13.4266 -0.0993885 -3.51626
rclavicle 5.1684e-015 1.59028e-015
rhumerus -32.1905 -26.5649 -9.99435
rradius 34.9592
rwrist -7.58787
rhand -20.0468 -2.91444
rfingers 7.12502
rthumb 6.29464 -32.8009
lclavicle 5.1684e-015 1.59028e-015
lhumerus -30.4545 31.153 26.5182
lradius 42.1491
lwrist 0.456974
lhand -19.4742 0.223734
lfingers 7.12502
lthumb 6.8474 30.093
rfemur -27.2168 -9.84919 15.3814
rtibia 57.7793
rfoot -8.98756 -18.2599
rtoes -6.03867
lfemur -9.52898 -0.0407861 -16.9841
ltibia 32.2019
lfoot -14.2899 9.34799
ltoes -16.4631
1151
root 2.80395 17.8599 24.0056 2.53855 1.948 -1.12302
lowerback 12.2563 0.143789 -2.55442
upperback 1.78406 -0.014347 2.38183
thorax -4.99867 0.0587227 3.95202
lowerneck -26.4996 0.736489 6.86373
upperneck 26.6947 0.10857 -6.12421
head 13.4285 -0.122913 -3.56998
rclavicle 3.97569e-015 -1.43125e-014
rhumerus -32.3433 -27.7535 -9.6124
rradius 34.6833
rwrist -6.16715
rhand -19.6056 -2.29219
rfingers 7.12502
rthumb 6.7206 -32.1655
lclavicle 3.97569e-015 -1.43125e-014
lhumerus -30.2208 31.2121 26.3446
lradius 41.981
lwrist 0.454063
lhand -19.5472 0.282434
lfingers 7.12502
lthumb 6.77696 30.154
rfemur -27.7179 -9.79868 15.1775
rtibia 56.3309
rfoot -9.17992 -17.7369
rtoes -6.5201
lfemur -9.24444 0.0568389 -17.25
ltibia 32.124
lfoot -14.3478 9.31911
ltoes -16.7122
1152
root 2.80861 17.858 24.0818 2.59624 1.87729 -0.91467
lowerback 12.283 0.181225 -2.43022
upperback 1.76736 0.0532975 2.41612
thorax -5.037 0.0910762 3.90694
lowerneck -26.5761 0.691452 6.81
upperneck 26.6979 0.108915 -6.26877
head 13.4449 -0.150084 -3.62046
rclavicle -9.54166e-015 -1.98785e-015
rhumerus -32.5382 -29.4651 -9.07714
rradius 34.3364
rwrist -4.40368
rhand -19.1674 -1.7992
rfingers 7.12502
rthumb 7.14356 -31.6586
lclavicle -9.54166e-015 -1.98785e-015
lhumerus -29.9499 31.3011 26.1747
lradius 41.7629
lwrist 0.396634
lhand -19.6131 0.252538
lfingers 7.12502
lthumb 6.71336 30.1261
rfemur -28.2174 -9.67576 15.0099
rtibia 54.7967
rfoot -9.28511 -17.2541
rtoes -6.93951
lfemur -8.96986 0.16768 -17.483
ltibia 32.0257
lfoot -14.3861 9.28881
ltoes -16.9508
1153
root 2.81155 17.8519 24.1584 2.65171 1.79931 -0.746527
lowerback 12.3086 0.220513 -2.26865
upperback 1.75511 0.129501 2.46918
thorax -5.07052 0.126894 3.8589
lowerneck -26.6586 0.645427 6.74909
upperneck 26.7018 0.112252 -6.41799
head 13.463 -0.17748 -3.67128
rclavicle -1.02374e-014 -2.78299e-015
rhumerus -32.7521 -31.389 -8.47754
rradius 33.9855
rwrist -2.59124
rhand -18.7829 -1.48715
rfingers 7.12502
rthumb 7.51472 -31.3337
lclavicle -1.02374e-014 -2.78299e-015
lhumerus -29.6695 31.3686 26.0161
lradius 41.549
lwrist 0.371933
lhand -19.6855 0.271743
lfingers 7.12502
lthumb 6.64342 30.1475
rfemur -28.706 -9.49161 14.8843
rtibia 53.1996
rfoot -9.29804 -16.8047
rtoes -7.25344
lfemur -8.68885 0.270825 -17.6657
ltibia 31.9088
lfoot -14.3982 9.27434
ltoes -17.1935
1154
root 2.81331 17.8534 24.2361 2.71542 1.71367 -0.639651
lowerback 12.3304 0.257239 -2.06183
upperback 1.73644 0.210312 2.55329
thorax -5.10883 0.164505 3.81715
lowerneck -26.7074 0.61033 6.71369
upperneck 26.6636 0.135874 -6.61123
head 13.4586 -0.200102 -3.73825
rclavicle 8.15017e-015 -2.38542e-015
rhumerus -32.9431 -33.0269 -7.96894
rradius 33.7121
rwrist -1.17443
rhand -18.5298 -1.35002
rfingers 7.12502
rthumb 7.75896 -31.1877
lclavicle 8.15017e-015 -2.38542e-015
lhumerus -29.436 31.4075 25.8499
lradius 41.3675
lwrist 0.389141
lhand -19.7532 0.266712
lfingers 7.12502
lthumb 6.5781 30.1445
rfemur -29.1489 -9.23506 14.8236
rtibia 51.5029
rfoot -9.21857 -16.3924
rtoes -7.47393
lfemur -8.39507 0.37023 -17.7783
ltibia 31.7513
lfoot -14.3741 9.27753
ltoes -17.4259
